<svg xmlns="http://www.w3.org/2000/svg" width="12.063" height="11.353" viewBox="0 0 12.063 11.353">
  <path id="Icon_awesome-hotel" data-name="Icon awesome-hotel" d="M11.728,1.419a.345.345,0,0,0,.335-.355V.355A.345.345,0,0,0,11.728,0H.335A.345.345,0,0,0,0,.355v.71a.345.345,0,0,0,.335.355H.67V9.934H.335A.345.345,0,0,0,0,10.289V11a.345.345,0,0,0,.335.355H5.361V9.579A.346.346,0,0,1,5.7,9.224h.67a.346.346,0,0,1,.335.355v1.774h5.026A.345.345,0,0,0,12.063,11v-.71a.345.345,0,0,0-.335-.355h-.335V1.419Zm-6.366.993a.3.3,0,0,1,.268-.284h.8a.3.3,0,0,1,.268.284v.851a.3.3,0,0,1-.268.284h-.8a.3.3,0,0,1-.268-.284Zm0,2.129a.3.3,0,0,1,.268-.284h.8a.3.3,0,0,1,.268.284v.851a.3.3,0,0,1-.268.284h-.8a.3.3,0,0,1-.268-.284ZM2.681,2.413a.3.3,0,0,1,.268-.284h.8a.3.3,0,0,1,.268.284v.851a.3.3,0,0,1-.268.284h-.8a.3.3,0,0,1-.268-.284ZM3.753,5.677h-.8a.3.3,0,0,1-.268-.284V4.541a.3.3,0,0,1,.268-.284h.8a.3.3,0,0,1,.268.284v.851A.3.3,0,0,1,3.753,5.677Zm.268,2.838a2.072,2.072,0,0,1,2.01-2.129,2.072,2.072,0,0,1,2.01,2.129ZM9.382,5.393a.3.3,0,0,1-.268.284h-.8a.3.3,0,0,1-.268-.284V4.541a.3.3,0,0,1,.268-.284h.8a.3.3,0,0,1,.268.284Zm0-2.129a.3.3,0,0,1-.268.284h-.8a.3.3,0,0,1-.268-.284V2.413a.3.3,0,0,1,.268-.284h.8a.3.3,0,0,1,.268.284Z" fill="#23a892"/>
</svg>
