<svg xmlns="http://www.w3.org/2000/svg" width="34.912" height="29.28" viewBox="0 0 34.912 29.28">
  <path id="Icon_ionic-ios-share-alt" data-name="Icon ionic-ios-share-alt" d="M38.109,18.616,25.652,6.962a.637.637,0,0,0-.494-.212c-.388.018-.883.291-.883.706V13.3a.377.377,0,0,1-.318.362c-12.386,1.9-17.6,11.168-19.449,20.791-.071.38.441.733.68.433,4.52-5.694,10.02-9.411,18.716-9.482a.437.437,0,0,1,.371.424v5.738a.758.758,0,0,0,1.28.468L38.1,20.178a.975.975,0,0,0,.309-.742A1.183,1.183,0,0,0,38.109,18.616Z" transform="translate(-3.998 -6.25)" fill="none" stroke="#d2cfcf" stroke-width="1"/>
</svg>
