<svg xmlns="http://www.w3.org/2000/svg" width="33.087" height="33" viewBox="0 0 33.087 33">
  <path id="Icon_ionic-md-settings" data-name="Icon ionic-md-settings" d="M31.526,20.975a10.006,10.006,0,0,0,.082-1.6c0-.56-.082-1.04-.082-1.6l3.436-2.64a.735.735,0,0,0,.164-1.04l-3.273-5.52a.8.8,0,0,0-.982-.32l-4.091,1.6A11.909,11.909,0,0,0,24,8.255l-.573-4.24a.877.877,0,0,0-.818-.64H16.061a.877.877,0,0,0-.818.64l-.654,4.24a13.856,13.856,0,0,0-2.782,1.6l-4.091-1.6a.766.766,0,0,0-.982.32L3.46,14.1a.966.966,0,0,0,.164,1.04l3.519,2.64c0,.56-.082,1.04-.082,1.6s.082,1.04.082,1.6l-3.436,2.64a.735.735,0,0,0-.164,1.04l3.273,5.52a.8.8,0,0,0,.982.32l4.091-1.6a11.908,11.908,0,0,0,2.782,1.6l.654,4.24a.793.793,0,0,0,.818.64h6.546a.877.877,0,0,0,.818-.64l.655-4.24a13.848,13.848,0,0,0,2.782-1.6l4.091,1.6a.766.766,0,0,0,.982-.32l3.273-5.52a.965.965,0,0,0-.164-1.04Zm-12.192,4a5.6,5.6,0,1,1,0-11.2,5.6,5.6,0,1,1,0,11.2Z" transform="translate(-2.832 -2.875)" fill="none" stroke="#d2cfcf" stroke-width="1"/>
</svg>
